<!DOCTYPE svg PUBLIC "-//W3C//DTD SVG 1.1//EN" "http://www.w3.org/Graphics/SVG/1.1/DTD/svg11.dtd">
<!-- Uploaded to: SVG Repo, www.svgrepo.com, Transformed by: SVG Repo Mixer Tools -->
<svg fill="#000000" width="800px" height="800px" viewBox="0 0 24 24" id="music-collection" data-name="Flat Line" xmlns="http://www.w3.org/2000/svg" class="icon flat-line">
<g id="SVGRepo_bgCarrier" stroke-width="0"/>
<g id="SVGRepo_tracerCarrier" stroke-linecap="round" stroke-linejoin="round"/>
<g id="SVGRepo_iconCarrier">
<path id="secondary" d="M16,3H4A1,1,0,0,0,3,4V16a1,1,0,0,0,1,1H16a1,1,0,0,0,1-1V4A1,1,0,0,0,16,3ZM9,13a2,2,0,1,1,2-2A2,2,0,0,1,9,13Z" style="fill: #ffffff; stroke-width: 2;"/>
<path id="primary" d="M11,11V7h2" style="fill: none; stroke: #000000; stroke-linecap: round; stroke-linejoin: round; stroke-width: 2;"/>
<path id="primary-2" data-name="primary" d="M11,11A2,2,0,1,1,9,9,2,2,0,0,1,11,11Zm6,5V4a1,1,0,0,0-1-1H4A1,1,0,0,0,3,4V16a1,1,0,0,0,1,1H16A1,1,0,0,0,17,16Z" style="fill: none; stroke: #000000; stroke-linecap: round; stroke-linejoin: round; stroke-width: 2;"/>
<path id="primary-3" data-name="primary" d="M7,21H17a4,4,0,0,0,4-4V5" style="fill: none; stroke: #000000; stroke-linecap: round; stroke-linejoin: round; stroke-width: 2;"/>
</g>
</svg>