<!DOCTYPE svg PUBLIC "-//W3C//DTD SVG 1.1//EN" "http://www.w3.org/Graphics/SVG/1.1/DTD/svg11.dtd">
<!-- Uploaded to: SVG Repo, www.svgrepo.com, Transformed by: SVG Repo Mixer Tools -->
<svg width="203px" height="203px" viewBox="0 0 48.00 48.00" xmlns="http://www.w3.org/2000/svg" fill="#868686" stroke="#868686" transform="matrix(1, 0, 0, 1, 0, 0)rotate(0)" stroke-width="0.00048000000000000007">
<g id="SVGRepo_bgCarrier" stroke-width="0"/>
<g id="SVGRepo_tracerCarrier" stroke-linecap="round" stroke-linejoin="round"/>
<g id="SVGRepo_iconCarrier"> <title>apps-small-solid</title> <g id="Layer_2" data-name="Layer 2"> <g id="invisible_box" data-name="invisible box"> <rect width="48" height="48" fill="none"/> </g> <g id="icons_Q2" data-name="icons Q2"> <path d="M16,6v8a2,2,0,0,1-2,2H6a2,2,0,0,1-2-2V6A2,2,0,0,1,6,4h8A2,2,0,0,1,16,6ZM28,4H20a2,2,0,0,0-2,2v8a2,2,0,0,0,2,2h8a2,2,0,0,0,2-2V6A2,2,0,0,0,28,4ZM42,4H34a2,2,0,0,0-2,2v8a2,2,0,0,0,2,2h8a2,2,0,0,0,2-2V6A2,2,0,0,0,42,4ZM14,18H6a2,2,0,0,0-2,2v8a2,2,0,0,0,2,2h8a2,2,0,0,0,2-2V20A2,2,0,0,0,14,18Zm14,0H20a2,2,0,0,0-2,2v8a2,2,0,0,0,2,2h8a2,2,0,0,0,2-2V20A2,2,0,0,0,28,18Zm14,0H34a2,2,0,0,0-2,2v8a2,2,0,0,0,2,2h8a2,2,0,0,0,2-2V20A2,2,0,0,0,42,18ZM14,32H6a2,2,0,0,0-2,2v8a2,2,0,0,0,2,2h8a2,2,0,0,0,2-2V34A2,2,0,0,0,14,32Zm14,0H20a2,2,0,0,0-2,2v8a2,2,0,0,0,2,2h8a2,2,0,0,0,2-2V34A2,2,0,0,0,28,32Zm14,0H34a2,2,0,0,0-2,2v8a2,2,0,0,0,2,2h8a2,2,0,0,0,2-2V34A2,2,0,0,0,42,32Z"/> </g> </g> </g>
</svg>